<svg width="511" height="511" xmlns="http://www.w3.org/2000/svg">

 <g>
  <title>background</title>
  <rect fill="none" id="canvas_background" height="513" width="513" y="-1" x="-1"/>
 </g>
 <g>
  <title>Layer 1</title>
  <path id="svg_5" fill="#FF8800" d="m324.96,192.02649l-35.412,-11.159l-21.557,-30.231c-2.763,-3.875 -7.231,-6.177 -11.992,-6.177s-9.228,2.302 -11.992,6.177l-21.556,30.231l-35.411,11.159c-4.541,1.432 -8.109,4.969 -9.581,9.497c-1.471,4.526 -0.663,9.487 2.169,13.313l22.09,29.843l-0.33,37.128c-0.042,4.76 2.219,9.247 6.071,12.047c2.549,1.852 5.586,2.812 8.658,2.812c1.57,0 3.148,-0.251 4.675,-0.762l35.208,-11.787l35.208,11.786c4.515,1.515 9.481,0.749 13.332,-2.051c3.852,-2.798 6.114,-7.286 6.071,-12.047l-0.33,-37.128l22.09,-29.842c2.833,-3.826 3.64,-8.786 2.169,-13.314c-1.47,-4.528 -5.039,-8.065 -9.58,-9.495z"/>
  <path id="svg_6" fill="#FFA500" d="m244.007,150.63649l-21.556,30.231l-35.411,11.159c-4.541,1.432 -8.109,4.969 -9.581,9.497c-1.471,4.526 -0.663,9.487 2.169,13.313l22.09,29.843l-0.33,37.128c-0.042,4.76 2.219,9.247 6.071,12.047c2.549,1.852 5.586,2.812 8.658,2.812c1.57,0 3.148,-0.251 4.675,-0.762l35.208,-11.787l0,-139.658c-4.761,0 -9.229,2.3 -11.993,6.177z"/>
  <path id="svg_7" fill="#FF8800" d="m511.278,245.71349c-1.471,-4.527 -5.04,-8.065 -9.581,-9.496l-35.411,-11.158l-21.556,-30.231c-2.763,-3.875 -7.231,-6.177 -11.992,-6.177c-4.761,0 -9.228,2.302 -11.992,6.177l-21.556,30.231l-35.411,11.158c-4.541,1.431 -8.11,4.968 -9.581,9.496c-1.472,4.527 -0.664,9.488 2.169,13.314l22.09,29.843l-0.33,37.128c-0.043,4.761 2.219,9.248 6.07,12.047c3.853,2.8 8.818,3.56 13.333,2.052l35.208,-11.786l35.208,11.786c1.527,0.512 3.105,0.761 4.675,0.761c3.071,0 6.109,-0.961 8.658,-2.813c3.851,-2.798 6.113,-7.286 6.07,-12.047l-0.33,-37.128l22.09,-29.843c2.833,-3.826 3.641,-8.787 2.169,-13.314z"/>
  <path id="svg_8" fill="#FFC300" d="m148.221,236.21749l-35.411,-11.158l-21.558,-30.231c-2.764,-3.875 -7.231,-6.177 -11.992,-6.177s-9.228,2.302 -11.992,6.177l-21.555,30.231l-35.412,11.158c-4.541,1.431 -8.109,4.968 -9.58,9.496c-1.472,4.527 -0.663,9.488 2.169,13.314l22.09,29.843l-0.33,37.128c-0.042,4.76 2.219,9.247 6.071,12.046c3.852,2.8 8.819,3.561 13.333,2.052l35.208,-11.786l35.208,11.786c1.527,0.512 3.105,0.761 4.675,0.761c3.071,0 6.109,-0.961 8.658,-2.813c3.851,-2.798 6.113,-7.286 6.071,-12.046l-0.33,-37.128l22.09,-29.843c2.832,-3.825 3.641,-8.786 2.169,-13.314c-1.473,-4.528 -5.042,-8.065 -9.582,-9.496z"/>
  <g id="svg_9"/>
  <g id="svg_10"/>
  <g id="svg_11"/>
  <g id="svg_12"/>
  <g id="svg_13"/>
  <g id="svg_14"/>
  <g id="svg_15"/>
  <g id="svg_16"/>
  <g id="svg_17"/>
  <g id="svg_18"/>
  <g id="svg_19"/>
  <g id="svg_20"/>
  <g id="svg_21"/>
  <g id="svg_22"/>
  <g id="svg_23"/>
 </g>
</svg>